<?xml version="1.0" encoding="utf-8"?>
<!-- Generator: Adobe Illustrator 25.0.0, SVG Export Plug-In . SVG Version: 6.00 Build 0)  -->
<svg version="1.1" id="Capa_1" xmlns="http://www.w3.org/2000/svg" xmlns:xlink="http://www.w3.org/1999/xlink" x="0px" y="0px"
	 viewBox="0 0 16 16" style="enable-background:new 0 0 16 16;" xml:space="preserve">
<style type="text/css">
	.st0{fill:#FFFFFF;}
	.st1{fill:#7F0000;}
</style>
<circle class="st0" cx="8" cy="8" r="8"/>
<path class="st1" d="M13,3c0.1,0.1,0.1,0.2,0.1,0.4l-3.8,9.5c-0.1,0.3-0.4,0.4-0.6,0.3c-0.1,0-0.2-0.1-0.2-0.2L6.4,9.6L3.1,7.6
	C2.9,7.4,2.8,7.1,3,6.9C3,6.8,3.1,6.7,3.2,6.7l9.5-3.8C12.8,2.9,12.9,2.9,13,3L13,3z M7,9.4l1.8,2.8l3.1-7.7L7,9.4z M11.4,4.1
	L3.7,7.2L6.6,9L11.4,4.1L11.4,4.1z"/>
</svg>
